<svg xmlns="http://www.w3.org/2000/svg" xmlns:xlink="http://www.w3.org/1999/xlink" width="877.121" height="11.268" viewBox="0 0 877.121 11.268">
  <defs>
    <clipPath id="clip-path">
      <rect width="877.121" height="11.268" fill="none"/>
    </clipPath>
  </defs>
  <g id="Group_6019" data-name="Group 6019" transform="translate(-274.646 -3169.831)">
    <g id="Repeat_Grid_1" data-name="Repeat Grid 1" transform="translate(274.646 3169.831)" opacity="0.376" clip-path="url(#clip-path)">
      <g transform="translate(-274.646 -3388.831)">
        <path id="Path_28" data-name="Path 28" d="M-15064-13249.255l10.207-10.207,10.207,10.207" transform="translate(15339 16649)" fill="none" stroke="#744867" stroke-width="1"/>
      </g>
      <g transform="translate(-252.646 -3388.831)">
        <path id="Path_28-2" data-name="Path 28" d="M-15064-13249.255l10.207-10.207,10.207,10.207" transform="translate(15339 16649)" fill="none" stroke="#744867" stroke-width="1"/>
      </g>
      <g transform="translate(-230.646 -3388.831)">
        <path id="Path_28-3" data-name="Path 28" d="M-15064-13249.255l10.207-10.207,10.207,10.207" transform="translate(15339 16649)" fill="none" stroke="#744867" stroke-width="1"/>
      </g>
      <g transform="translate(-208.646 -3388.831)">
        <path id="Path_28-4" data-name="Path 28" d="M-15064-13249.255l10.207-10.207,10.207,10.207" transform="translate(15339 16649)" fill="none" stroke="#744867" stroke-width="1"/>
      </g>
      <g transform="translate(-186.646 -3388.831)">
        <path id="Path_28-5" data-name="Path 28" d="M-15064-13249.255l10.207-10.207,10.207,10.207" transform="translate(15339 16649)" fill="none" stroke="#744867" stroke-width="1"/>
      </g>
      <g transform="translate(-164.646 -3388.831)">
        <path id="Path_28-6" data-name="Path 28" d="M-15064-13249.255l10.207-10.207,10.207,10.207" transform="translate(15339 16649)" fill="none" stroke="#744867" stroke-width="1"/>
      </g>
      <g transform="translate(-142.646 -3388.831)">
        <path id="Path_28-7" data-name="Path 28" d="M-15064-13249.255l10.207-10.207,10.207,10.207" transform="translate(15339 16649)" fill="none" stroke="#744867" stroke-width="1"/>
      </g>
      <g transform="translate(-120.646 -3388.831)">
        <path id="Path_28-8" data-name="Path 28" d="M-15064-13249.255l10.207-10.207,10.207,10.207" transform="translate(15339 16649)" fill="none" stroke="#744867" stroke-width="1"/>
      </g>
      <g transform="translate(-98.646 -3388.831)">
        <path id="Path_28-9" data-name="Path 28" d="M-15064-13249.255l10.207-10.207,10.207,10.207" transform="translate(15339 16649)" fill="none" stroke="#744867" stroke-width="1"/>
      </g>
      <g transform="translate(-76.646 -3388.831)">
        <path id="Path_28-10" data-name="Path 28" d="M-15064-13249.255l10.207-10.207,10.207,10.207" transform="translate(15339 16649)" fill="none" stroke="#744867" stroke-width="1"/>
      </g>
      <g transform="translate(-54.646 -3388.831)">
        <path id="Path_28-11" data-name="Path 28" d="M-15064-13249.255l10.207-10.207,10.207,10.207" transform="translate(15339 16649)" fill="none" stroke="#744867" stroke-width="1"/>
      </g>
      <g transform="translate(-32.646 -3388.831)">
        <path id="Path_28-12" data-name="Path 28" d="M-15064-13249.255l10.207-10.207,10.207,10.207" transform="translate(15339 16649)" fill="none" stroke="#744867" stroke-width="1"/>
      </g>
      <g transform="translate(-10.646 -3388.831)">
        <path id="Path_28-13" data-name="Path 28" d="M-15064-13249.255l10.207-10.207,10.207,10.207" transform="translate(15339 16649)" fill="none" stroke="#744867" stroke-width="1"/>
      </g>
      <g transform="translate(11.354 -3388.831)">
        <path id="Path_28-14" data-name="Path 28" d="M-15064-13249.255l10.207-10.207,10.207,10.207" transform="translate(15339 16649)" fill="none" stroke="#744867" stroke-width="1"/>
      </g>
      <g transform="translate(33.354 -3388.831)">
        <path id="Path_28-15" data-name="Path 28" d="M-15064-13249.255l10.207-10.207,10.207,10.207" transform="translate(15339 16649)" fill="none" stroke="#744867" stroke-width="1"/>
      </g>
      <g transform="translate(55.354 -3388.831)">
        <path id="Path_28-16" data-name="Path 28" d="M-15064-13249.255l10.207-10.207,10.207,10.207" transform="translate(15339 16649)" fill="none" stroke="#744867" stroke-width="1"/>
      </g>
      <g transform="translate(77.354 -3388.831)">
        <path id="Path_28-17" data-name="Path 28" d="M-15064-13249.255l10.207-10.207,10.207,10.207" transform="translate(15339 16649)" fill="none" stroke="#744867" stroke-width="1"/>
      </g>
      <g transform="translate(99.354 -3388.831)">
        <path id="Path_28-18" data-name="Path 28" d="M-15064-13249.255l10.207-10.207,10.207,10.207" transform="translate(15339 16649)" fill="none" stroke="#744867" stroke-width="1"/>
      </g>
      <g transform="translate(121.354 -3388.831)">
        <path id="Path_28-19" data-name="Path 28" d="M-15064-13249.255l10.207-10.207,10.207,10.207" transform="translate(15339 16649)" fill="none" stroke="#744867" stroke-width="1"/>
      </g>
      <g transform="translate(143.354 -3388.831)">
        <path id="Path_28-20" data-name="Path 28" d="M-15064-13249.255l10.207-10.207,10.207,10.207" transform="translate(15339 16649)" fill="none" stroke="#744867" stroke-width="1"/>
      </g>
      <g transform="translate(165.354 -3388.831)">
        <path id="Path_28-21" data-name="Path 28" d="M-15064-13249.255l10.207-10.207,10.207,10.207" transform="translate(15339 16649)" fill="none" stroke="#744867" stroke-width="1"/>
      </g>
      <g transform="translate(187.354 -3388.831)">
        <path id="Path_28-22" data-name="Path 28" d="M-15064-13249.255l10.207-10.207,10.207,10.207" transform="translate(15339 16649)" fill="none" stroke="#744867" stroke-width="1"/>
      </g>
      <g transform="translate(209.354 -3388.831)">
        <path id="Path_28-23" data-name="Path 28" d="M-15064-13249.255l10.207-10.207,10.207,10.207" transform="translate(15339 16649)" fill="none" stroke="#744867" stroke-width="1"/>
      </g>
      <g transform="translate(231.354 -3388.831)">
        <path id="Path_28-24" data-name="Path 28" d="M-15064-13249.255l10.207-10.207,10.207,10.207" transform="translate(15339 16649)" fill="none" stroke="#744867" stroke-width="1"/>
      </g>
      <g transform="translate(253.354 -3388.831)">
        <path id="Path_28-25" data-name="Path 28" d="M-15064-13249.255l10.207-10.207,10.207,10.207" transform="translate(15339 16649)" fill="none" stroke="#744867" stroke-width="1"/>
      </g>
      <g transform="translate(275.354 -3388.831)">
        <path id="Path_28-26" data-name="Path 28" d="M-15064-13249.255l10.207-10.207,10.207,10.207" transform="translate(15339 16649)" fill="none" stroke="#744867" stroke-width="1"/>
      </g>
      <g transform="translate(297.354 -3388.831)">
        <path id="Path_28-27" data-name="Path 28" d="M-15064-13249.255l10.207-10.207,10.207,10.207" transform="translate(15339 16649)" fill="none" stroke="#744867" stroke-width="1"/>
      </g>
      <g transform="translate(319.354 -3388.831)">
        <path id="Path_28-28" data-name="Path 28" d="M-15064-13249.255l10.207-10.207,10.207,10.207" transform="translate(15339 16649)" fill="none" stroke="#744867" stroke-width="1"/>
      </g>
      <g transform="translate(341.354 -3388.831)">
        <path id="Path_28-29" data-name="Path 28" d="M-15064-13249.255l10.207-10.207,10.207,10.207" transform="translate(15339 16649)" fill="none" stroke="#744867" stroke-width="1"/>
      </g>
      <g transform="translate(363.354 -3388.831)">
        <path id="Path_28-30" data-name="Path 28" d="M-15064-13249.255l10.207-10.207,10.207,10.207" transform="translate(15339 16649)" fill="none" stroke="#744867" stroke-width="1"/>
      </g>
      <g transform="translate(385.354 -3388.831)">
        <path id="Path_28-31" data-name="Path 28" d="M-15064-13249.255l10.207-10.207,10.207,10.207" transform="translate(15339 16649)" fill="none" stroke="#744867" stroke-width="1"/>
      </g>
      <g transform="translate(407.354 -3388.831)">
        <path id="Path_28-32" data-name="Path 28" d="M-15064-13249.255l10.207-10.207,10.207,10.207" transform="translate(15339 16649)" fill="none" stroke="#744867" stroke-width="1"/>
      </g>
      <g transform="translate(429.354 -3388.831)">
        <path id="Path_28-33" data-name="Path 28" d="M-15064-13249.255l10.207-10.207,10.207,10.207" transform="translate(15339 16649)" fill="none" stroke="#744867" stroke-width="1"/>
      </g>
      <g transform="translate(451.354 -3388.831)">
        <path id="Path_28-34" data-name="Path 28" d="M-15064-13249.255l10.207-10.207,10.207,10.207" transform="translate(15339 16649)" fill="none" stroke="#744867" stroke-width="1"/>
      </g>
      <g transform="translate(473.354 -3388.831)">
        <path id="Path_28-35" data-name="Path 28" d="M-15064-13249.255l10.207-10.207,10.207,10.207" transform="translate(15339 16649)" fill="none" stroke="#744867" stroke-width="1"/>
      </g>
      <g transform="translate(495.354 -3388.831)">
        <path id="Path_28-36" data-name="Path 28" d="M-15064-13249.255l10.207-10.207,10.207,10.207" transform="translate(15339 16649)" fill="none" stroke="#744867" stroke-width="1"/>
      </g>
      <g transform="translate(517.354 -3388.831)">
        <path id="Path_28-37" data-name="Path 28" d="M-15064-13249.255l10.207-10.207,10.207,10.207" transform="translate(15339 16649)" fill="none" stroke="#744867" stroke-width="1"/>
      </g>
      <g transform="translate(539.354 -3388.831)">
        <path id="Path_28-38" data-name="Path 28" d="M-15064-13249.255l10.207-10.207,10.207,10.207" transform="translate(15339 16649)" fill="none" stroke="#744867" stroke-width="1"/>
      </g>
      <g transform="translate(561.354 -3388.831)">
        <path id="Path_28-39" data-name="Path 28" d="M-15064-13249.255l10.207-10.207,10.207,10.207" transform="translate(15339 16649)" fill="none" stroke="#744867" stroke-width="1"/>
      </g>
      <g transform="translate(583.354 -3388.831)">
        <path id="Path_28-40" data-name="Path 28" d="M-15064-13249.255l10.207-10.207,10.207,10.207" transform="translate(15339 16649)" fill="none" stroke="#744867" stroke-width="1"/>
      </g>
    </g>
  </g>
</svg>
