<svg xmlns="http://www.w3.org/2000/svg" width="238.368" height="28.958" viewBox="0 0 238.368 28.958">
  <g id="svg0_2" data-name="svg0 2" transform="translate(0 -34.042)">
    <g id="Group_2" data-name="Group 2" transform="translate(0 34.042)">
      <g id="Group_1" data-name="Group 1" transform="translate(18.347)">
        <path id="Path_1" data-name="Path 1" d="M26.742,46.2A1.7,1.7,0,1,1,24.9,47.895,1.75,1.75,0,0,1,26.742,46.2Zm1.474,21a1.474,1.474,0,0,1-2.947,0v-14a1.474,1.474,0,0,1,2.947,0Z" transform="translate(-24.9 -46.2)" fill="#fff"/>
        <path id="Path_2" data-name="Path 2" d="M49.174,69.247c0,4.937-3.242,7.884-8.105,7.884-3.095,0-6.926-1.621-6.926-3.021a1.154,1.154,0,0,1,1.253-1.253c1.326,0,2.653,1.916,5.895,1.916,3.758,0,4.937-2.726,4.937-5.084v-1.4h-.074a5.256,5.256,0,0,1-4.568,2.358c-5.084,0-7.884-4.053-7.884-8.474,0-4.347,2.874-8.474,7.884-8.474a6.507,6.507,0,0,1,4.568,2.063h.074v-.737c0-.958.811-1.326,1.621-1.326a1.326,1.326,0,0,1,1.4,1.326V69.247Zm-7.589-.958c3.684,0,4.937-3.316,4.937-6.116s-1.253-6.116-4.937-6.116-4.937,3.316-4.937,6.116S37.9,68.289,41.584,68.289Z" transform="translate(-27.216 -48.174)" fill="#fff"/>
        <path id="Path_3" data-name="Path 3" d="M84.1,55.174a1.474,1.474,0,1,1,2.947,0v.663l.074.074a6.34,6.34,0,0,1,4.937-2.137c2.8,0,6.263,1.621,6.263,6.263v9.137a1.474,1.474,0,0,1-2.947,0V60.184a4.127,4.127,0,0,0-8.253,0v8.989a1.474,1.474,0,1,1-2.947,0v-14Z" transform="translate(-40.479 -48.174)" fill="#fff"/>
        <path id="Path_4" data-name="Path 4" d="M132.7,55.174a1.474,1.474,0,1,1,2.947,0v.663l.074.074a6.34,6.34,0,0,1,4.937-2.137c2.8,0,6.263,1.621,6.263,6.263v9.137a1.474,1.474,0,1,1-2.947,0V60.184a4.127,4.127,0,0,0-8.253,0v8.989a1.474,1.474,0,0,1-2.947,0v-14Z" transform="translate(-53.268 -48.174)" fill="#fff"/>
        <path id="Path_5" data-name="Path 5" d="M181.2,55.174a1.474,1.474,0,0,1,2.947,0v1.4h.074c.663-1.253,2.358-2.874,4.053-2.874,1.032,0,1.695.589,1.695,1.4s-.589,1.253-1.842,1.474a4.408,4.408,0,0,0-3.905,4.716v7.884a1.474,1.474,0,1,1-2.947,0v-14Z" transform="translate(-66.032 -48.174)" fill="#fff"/>
        <path id="Path_6" data-name="Path 6" d="M210.174,69.247c0,4.937-3.242,7.884-8.105,7.884-3.095,0-6.926-1.621-6.926-3.021a1.154,1.154,0,0,1,1.253-1.253c1.326,0,2.653,1.916,5.895,1.916,3.758,0,4.937-2.726,4.937-5.084v-1.4h-.074a5.256,5.256,0,0,1-4.568,2.358c-5.084,0-7.884-4.053-7.884-8.474,0-4.347,2.874-8.474,7.884-8.474a6.508,6.508,0,0,1,4.568,2.063h.074v-.737c0-.958.811-1.326,1.621-1.326a1.326,1.326,0,0,1,1.4,1.326V69.247Zm-7.589-.958c3.684,0,4.937-3.316,4.937-6.116s-1.253-6.116-4.937-6.116-4.937,3.316-4.937,6.116S198.9,68.289,202.584,68.289Z" transform="translate(-69.584 -48.174)" fill="#fff"/>
        <path id="Path_7" data-name="Path 7" d="M222.542,46.2a1.7,1.7,0,1,1-1.842,1.695A1.8,1.8,0,0,1,222.542,46.2Zm1.474,21a1.474,1.474,0,0,1-2.947,0v-14a1.474,1.474,0,0,1,2.947,0Z" transform="translate(-76.426 -46.2)" fill="#fff"/>
        <path id="Path_8" data-name="Path 8" d="M256.895,72.4a1.554,1.554,0,1,1-1.695,1.547A1.594,1.594,0,0,1,256.895,72.4Z" transform="translate(-85.505 -53.095)" fill="#fff"/>
        <path id="Path_9" data-name="Path 9" d="M265.9,55.174a1.474,1.474,0,0,1,2.947,0v.663l.074.074a6.34,6.34,0,0,1,4.937-2.137c2.8,0,6.263,1.621,6.263,6.263v9.137a1.474,1.474,0,0,1-2.947,0V60.184a4.127,4.127,0,0,0-8.253,0v8.989a1.474,1.474,0,0,1-2.947,0v-14Z" transform="translate(-88.321 -48.174)" fill="#fff"/>
        <path id="Path_10" data-name="Path 10" d="M314.826,48.674a1.474,1.474,0,1,1,2.947,0v3.537h1.253c.958,0,1.474.442,1.474,1.179s-.516,1.179-1.474,1.179h-1.253V67.463a1.474,1.474,0,1,1-2.947,0V54.568h-1.253c-.958,0-1.474-.442-1.474-1.179s.516-1.179,1.474-1.179h1.253Z" transform="translate(-100.479 -46.463)" fill="#fff"/>
      </g>
      <path id="Path_11" data-name="Path 11" d="M15.842,61.832A7.788,7.788,0,0,0,8.105,53.8C3.095,53.8,0,57.779,0,62.274c0,4.347,2.505,8.474,8.253,8.474,3.537,0,7.221-2.063,7.221-3.389a1.064,1.064,0,0,0-1.105-1.179c-1.105,0-2.137,2.211-6.116,2.211a5.116,5.116,0,0,1-4.568-2.284A6.981,6.981,0,0,1,2.653,62.2a6.432,6.432,0,0,1,2.063-4.937,4.5,4.5,0,0,1,3.389-1.105c3.316,0,4.789,2.726,4.789,5.084H5.968a1.032,1.032,0,1,0,0,2.063h8.253C15.474,63.232,15.842,62.789,15.842,61.832Z" transform="translate(0 -48.2)" fill="#fff"/>
      <path id="Path_12" data-name="Path 12" d="M74.542,61.832A7.788,7.788,0,0,0,66.805,53.8c-5.011,0-8.105,3.979-8.105,8.474,0,4.347,2.505,8.474,8.253,8.474,3.537,0,7.221-2.063,7.221-3.389a1.064,1.064,0,0,0-1.105-1.179c-1.105,0-2.137,2.211-6.116,2.211a5.116,5.116,0,0,1-4.568-2.284A6.981,6.981,0,0,1,61.353,62.2a6.432,6.432,0,0,1,2.063-4.937,4.794,4.794,0,0,1,3.389-1.032c3.316,0,4.789,2.726,4.789,5.084H64.668a1.032,1.032,0,0,0,0,2.063h8.253C74.174,63.232,74.542,62.789,74.542,61.832Z" transform="translate(-15.447 -48.2)" fill="#fff"/>
      <path id="Path_13" data-name="Path 13" d="M123.142,61.832a7.788,7.788,0,0,0-7.737-8.032c-5.011,0-8.105,3.979-8.105,8.474,0,4.347,2.505,8.474,8.253,8.474,3.537,0,7.221-2.063,7.221-3.389a1.064,1.064,0,0,0-1.105-1.179c-1.105,0-2.137,2.211-6.116,2.211a5.116,5.116,0,0,1-4.568-2.284,6.981,6.981,0,0,1-1.032-3.905,6.432,6.432,0,0,1,2.063-4.937,4.794,4.794,0,0,1,3.389-1.032c3.316,0,4.789,2.726,4.789,5.084h-6.926a1.032,1.032,0,1,0,0,2.063h8.253C122.774,63.232,123.142,62.789,123.142,61.832Z" transform="translate(-28.237 -48.2)" fill="#fff"/>
      <path id="Path_14" data-name="Path 14" d="M171.742,61.832a7.788,7.788,0,0,0-7.737-8.032c-5.011,0-8.105,3.979-8.105,8.474,0,4.347,2.505,8.474,8.253,8.474,3.537,0,7.221-2.063,7.221-3.389a1.064,1.064,0,0,0-1.105-1.179c-1.105,0-2.137,2.211-6.116,2.211a5.116,5.116,0,0,1-4.568-2.284,6.981,6.981,0,0,1-1.032-3.905,6.432,6.432,0,0,1,2.063-4.937,4.794,4.794,0,0,1,3.389-1.032c3.316,0,4.789,2.726,4.789,5.084h-6.926a1.032,1.032,0,0,0,0,2.063h8.253C171.374,63.232,171.742,62.789,171.742,61.832Z" transform="translate(-41.026 -48.2)" fill="#fff"/>
      <path id="Path_15" data-name="Path 15" d="M244.942,61.832a7.788,7.788,0,0,0-7.737-8.032c-5.011,0-8.105,3.979-8.105,8.474,0,4.347,2.505,8.474,8.253,8.474,3.537,0,7.221-2.063,7.221-3.389a1.064,1.064,0,0,0-1.105-1.179c-1.105,0-2.137,2.211-6.116,2.211a5.116,5.116,0,0,1-4.568-2.284,6.981,6.981,0,0,1-1.032-3.905,6.432,6.432,0,0,1,2.063-4.937,4.794,4.794,0,0,1,3.389-1.032c3.316,0,4.789,2.726,4.789,5.084h-6.926a1.032,1.032,0,0,0,0,2.063h8.253C244.574,63.232,244.942,62.789,244.942,61.832Z" transform="translate(-60.289 -48.2)" fill="#fff"/>
      <path id="Path_16" data-name="Path 16" d="M304.942,61.832a7.788,7.788,0,0,0-7.737-8.032c-5.011,0-8.105,3.979-8.105,8.474,0,4.347,2.505,8.474,8.253,8.474,3.537,0,7.221-2.063,7.221-3.389a1.064,1.064,0,0,0-1.105-1.179c-1.105,0-2.137,2.211-6.116,2.211a5.116,5.116,0,0,1-4.568-2.284,6.981,6.981,0,0,1-1.032-3.905,6.432,6.432,0,0,1,2.063-4.937,4.794,4.794,0,0,1,3.389-1.032c3.316,0,4.789,2.726,4.789,5.084h-6.926a1.032,1.032,0,0,0,0,2.063h8.253C304.574,63.232,304.942,62.789,304.942,61.832Z" transform="translate(-76.079 -48.2)" fill="#fff"/>
    </g>
  </g>
</svg>
